<?xml version="1.0" standalone="no"?>
<!DOCTYPE svg PUBLIC "-//W3C//DTD SVG 20010904//EN"
 "http://www.w3.org/TR/2001/REC-SVG-20010904/DTD/svg10.dtd">
<svg version="1.0" xmlns="http://www.w3.org/2000/svg"
 width="300.000000pt" height="244.000000pt" viewBox="0 0 300.000000 244.000000"
 preserveAspectRatio="xMidYMid meet">

<g transform="translate(0.000000,244.000000) scale(0.100000,-0.100000)"
fill="#000000" stroke="none">
<path d="M165 2376 c-38 -58 44 -182 186 -281 43 -31 79 -58 79 -60 0 -2 -18
-1 -39 2 -47 6 -163 -12 -203 -33 -21 -11 -28 -22 -28 -43 0 -56 73 -90 253
-118 65 -10 117 -20 117 -24 0 -3 -27 -14 -60 -24 -84 -26 -120 -49 -120 -80
0 -17 9 -29 30 -40 37 -19 203 -45 291 -45 36 0 68 -2 71 -5 2 -3 -15 -25 -39
-50 -46 -48 -53 -74 -27 -99 18 -18 60 -20 123 -5 24 5 46 8 48 5 2 -2 -5 -22
-16 -45 -37 -71 -21 -131 34 -131 14 0 45 7 71 16 25 8 48 14 50 11 2 -2 -3
-20 -11 -40 -8 -21 -18 -71 -22 -112 -9 -115 22 -147 110 -110 50 21 51 20 66
-22 13 -36 105 -143 123 -143 4 0 -16 25 -45 55 -38 38 -58 68 -67 100 -14 49
-27 55 -70 30 -41 -23 -79 -19 -92 10 -13 28 0 120 28 208 20 61 10 76 -35 52
-18 -9 -54 -19 -82 -22 l-49 -6 0 31 c0 18 13 54 30 80 32 52 34 60 22 79 -6
10 -20 9 -62 -2 -68 -18 -130 -19 -130 -3 0 7 23 36 51 64 71 72 65 80 -58 89
-211 14 -293 31 -293 61 0 10 3 15 6 11 3 -3 29 3 57 12 29 10 99 26 156 37
84 15 105 23 111 39 11 30 4 35 -51 35 -71 0 -230 18 -323 36 -129 26 -181 61
-122 84 14 5 81 12 149 16 110 6 126 9 130 25 4 14 -10 27 -60 55 -163 91
-325 284 -239 284 25 0 51 -18 131 -88 75 -66 236 -142 460 -215 110 -36 227
-73 260 -82 33 -9 94 -27 136 -41 79 -25 117 -31 88 -14 -19 11 -70 28 -209
70 -364 109 -606 215 -717 313 -115 102 -167 121 -198 73z"/>
<path d="M2769 2196 c-51 -53 -108 -106 -128 -118 -20 -12 -54 -36 -76 -53
-66 -52 -210 -110 -315 -129 -52 -9 -118 -20 -146 -25 -63 -11 -133 -42 -158
-70 -11 -12 -26 -21 -34 -21 -9 0 -12 -3 -9 -7 4 -3 38 8 76 26 61 28 85 33
203 41 141 10 179 18 271 56 107 45 285 175 343 251 41 54 40 31 -3 -60 -51
-106 -113 -198 -180 -265 -44 -44 -53 -59 -53 -89 0 -20 9 -50 20 -69 25 -39
19 -71 -18 -107 -30 -28 -194 -117 -217 -117 -20 0 -34 -58 -23 -98 22 -79
-31 -142 -125 -149 -97 -8 -97 -8 -96 -61 2 -42 2 -44 8 -14 l6 33 65 3 c120
4 163 45 168 159 l4 72 72 28 c85 32 142 71 182 123 25 33 29 46 29 104 0 40
-5 73 -13 83 -9 10 -10 17 -2 22 26 16 121 149 169 234 86 157 124 295 84 308
-7 3 -53 -39 -104 -91z"/>
<path d="M1335 1893 c17 -8 45 -29 64 -47 19 -18 28 -23 21 -11 -17 28 -80 75
-99 75 -9 -1 -3 -8 14 -17z"/>
<path d="M1785 1727 c-45 -21 -85 -66 -113 -127 -30 -65 -56 -100 -85 -117
-18 -10 -19 -12 -5 -13 25 0 85 56 123 116 48 75 97 109 154 108 27 0 63 -10
86 -22 22 -12 51 -22 65 -22 25 1 25 1 -5 17 -16 9 -44 27 -61 40 -39 29 -117
39 -159 20z"/>
<path d="M1981 1617 c-14 -6 -34 -28 -45 -47 -18 -30 -20 -47 -16 -150 9 -238
5 -353 -13 -420 -21 -78 -91 -226 -146 -309 -56 -85 -35 -76 32 12 75 100 111
167 148 272 42 123 48 225 20 370 -33 171 -25 230 33 266 34 21 25 26 -13 6z"/>
<path d="M2081 1041 c-7 -26 -22 -46 -44 -60 -20 -13 -26 -21 -15 -21 20 0 66
53 74 86 11 41 -2 37 -15 -5z"/>
<path d="M1264 456 c-119 -124 -164 -213 -150 -292 16 -83 103 -122 291 -131
84 -4 126 -2 175 11 76 19 104 38 145 95 29 41 30 48 29 139 0 77 -5 107 -23
147 -12 28 -19 39 -16 25 11 -52 17 -179 11 -223 -11 -71 -63 -123 -146 -143
-71 -18 -219 -15 -321 7 -94 20 -132 87 -99 173 15 41 95 156 150 219 79 87
46 68 -46 -27z"/>
</g>
</svg>
