<?xml version="1.0" standalone="no"?>
<!DOCTYPE svg PUBLIC "-//W3C//DTD SVG 20010904//EN"
 "http://www.w3.org/TR/2001/REC-SVG-20010904/DTD/svg10.dtd">
<svg version="1.0" xmlns="http://www.w3.org/2000/svg"
 width="475.000000pt" height="254.000000pt" viewBox="0 0 475.000000 254.000000"
 preserveAspectRatio="xMidYMid meet">

<g transform="translate(0.000000,254.000000) scale(0.100000,-0.100000)"
fill="#000000" stroke="none">
<path d="M1265 2438 c-51 -18 -83 -47 -96 -85 -8 -25 -11 -107 -10 -257 1
-122 3 -359 4 -528 1 -168 -1 -304 -4 -303 -6 4 -10 -151 -14 -545 -1 -118 -5
-223 -9 -232 -4 -9 -3 -26 4 -37 13 -26 13 -26 -46 0 -66 28 -114 68 -296 248
-87 86 -170 165 -184 177 l-28 21 22 35 c12 19 47 66 77 104 30 38 55 74 55
80 0 7 9 14 21 17 11 3 19 11 17 19 -1 7 6 25 16 40 10 15 14 33 10 39 -4 7
-3 9 4 5 6 -3 19 5 29 20 10 14 31 41 47 60 15 19 24 34 20 34 -4 0 1 6 11 14
16 12 18 19 9 43 -6 15 -16 27 -22 26 -18 -4 -14 12 8 32 15 13 17 21 9 31 -6
7 -17 10 -25 7 -10 -4 -12 0 -7 13 5 14 3 16 -12 10 -11 -4 -16 -4 -13 0 15
15 -22 36 -52 29 -31 -7 -108 -86 -137 -140 -9 -16 -24 -35 -33 -42 -10 -7
-61 -65 -113 -130 -95 -116 -120 -143 -133 -143 -10 0 8 104 20 113 8 6 8 10
-1 14 -17 6 -16 28 2 43 8 7 15 20 14 29 0 12 -2 12 -8 -3 -4 -11 -10 -15 -14
-10 -8 14 3 55 14 48 12 -7 11 -1 -1 31 -9 23 -8 26 5 21 9 -3 15 0 15 10 0 8
-5 12 -11 8 -8 -5 -8 -1 0 14 14 27 14 45 0 36 -8 -4 -8 -1 -1 12 5 11 7 25 4
33 -2 7 1 17 9 21 12 8 28 164 43 430 4 58 7 116 8 130 1 14 1 55 0 91 -2 55
-7 72 -30 102 -34 44 -91 74 -161 83 -45 6 -56 4 -67 -10 -10 -15 -10 -25 2
-59 11 -32 14 -73 10 -172 -2 -71 -7 -137 -10 -145 -3 -8 -10 -73 -16 -145 -6
-71 -15 -177 -20 -235 -37 -395 -50 -558 -50 -650 0 -58 -3 -142 -8 -187 -4
-46 -5 -83 -2 -83 10 0 -4 -291 -14 -309 -3 -5 -3 -16 0 -25 9 -23 97 -76 127
-76 14 0 28 -4 31 -9 3 -5 23 -11 45 -13 34 -3 40 0 52 27 15 33 14 277 -1
305 -5 9 -3 26 6 40 7 14 13 37 14 52 0 19 4 26 13 22 8 -3 26 0 42 6 25 10
31 8 52 -14 12 -14 29 -29 36 -33 7 -4 23 -21 35 -37 51 -66 239 -228 297
-256 58 -28 62 -29 137 -18 61 9 83 17 108 39 37 34 40 35 40 11 0 -24 28 -62
45 -62 8 0 40 -16 71 -35 41 -24 61 -31 70 -24 8 7 14 7 19 -1 10 -16 22 -12
28 11 5 17 11 20 31 17 29 -6 34 3 31 57 -5 86 32 309 64 396 12 30 22 67 23
82 1 15 6 27 10 27 4 0 8 7 8 16 0 27 91 194 103 187 5 -3 7 -2 4 4 -15 24
135 213 209 263 61 43 66 37 67 -95 0 -27 -3 -59 -8 -69 -6 -14 -5 -17 4 -11
10 5 11 2 7 -11 -5 -17 -17 -104 -19 -146 -1 -9 -4 -15 -8 -12 -4 2 -9 -19
-11 -46 -1 -28 1 -51 5 -53 5 -1 3 -16 -4 -32 -13 -35 -21 -71 -21 -102 0 -13
-4 -23 -9 -23 -5 0 -7 -24 -4 -53 2 -30 1 -46 -4 -39 -5 9 -11 -8 -15 -47 -4
-34 -4 -65 -1 -70 3 -6 0 -27 -8 -48 -17 -51 -22 -234 -8 -262 7 -11 31 -30
54 -42 23 -12 50 -28 60 -37 13 -12 17 -12 17 -2 0 9 8 6 23 -8 l24 -22 11 22
c6 13 11 17 11 11 1 -7 7 -13 14 -13 10 0 14 23 16 93 1 50 6 118 12 150 5 32
8 71 5 87 -2 17 -1 30 4 30 7 0 34 207 29 226 -2 5 0 23 4 39 17 74 47 349 47
432 0 120 -24 188 -91 255 -26 26 -54 48 -61 48 -8 0 -32 9 -53 20 -22 12 -68
24 -101 27 -52 5 -69 2 -108 -18 -82 -41 -292 -263 -279 -295 3 -8 0 -14 -6
-14 -6 0 -11 -5 -11 -10 0 -6 -7 -22 -16 -36 -13 -18 -20 -22 -30 -14 -14 12
-16 68 -2 76 4 3 8 15 8 27 0 17 -2 19 -10 7 -5 -8 -11 -12 -14 -9 -9 9 6 79
15 73 11 -6 10 -7 14 120 1 55 -1 113 -6 129 -4 16 -4 39 1 53 5 13 6 24 2 24
-4 0 -7 43 -7 96 1 52 -2 97 -5 99 -11 7 -10 67 1 81 7 8 8 24 4 41 -5 16 -7
38 -6 51 1 12 -2 22 -6 22 -5 0 -8 30 -6 68 3 72 5 203 4 265 -1 29 -8 46 -30
68 -31 31 -56 35 -106 17z m112 -420 c-3 -8 -6 -5 -6 6 -1 11 2 17 5 13 3 -3
4 -12 1 -19z m-469 -620 c15 -15 16 -28 2 -28 -5 0 -10 6 -10 14 0 8 -6 17
-12 19 -7 3 -8 6 -2 6 5 1 15 -4 22 -11z m-18 -58 c0 -5 -9 -10 -21 -10 -11 0
-17 5 -14 10 3 6 13 10 21 10 8 0 14 -4 14 -10z"/>
<path d="M3803 2228 c-17 -24 -25 -45 -125 -323 -22 -60 -41 -119 -43 -130
-17 -82 -65 -240 -77 -252 -8 -8 -28 -16 -44 -18 -16 -2 -50 -8 -76 -14 -25
-6 -79 -12 -118 -13 -64 -1 -73 -4 -82 -24 -9 -19 -6 -30 18 -61 54 -71 110
-121 145 -128 19 -4 37 -13 41 -19 5 -7 8 -5 8 7 0 18 9 21 25 9 16 -11 17
-33 2 -56 -18 -28 -21 -87 -5 -99 10 -6 9 -7 -3 -4 -12 4 -19 -3 -24 -26 -4
-18 -9 -36 -10 -42 -46 -157 -70 -315 -70 -455 0 -79 3 -89 38 -151 38 -68
109 -147 162 -180 37 -23 113 -26 121 -4 4 8 10 15 15 15 5 0 18 9 29 20 11
11 27 20 35 20 8 0 15 5 15 10 0 6 6 9 13 8 6 -2 11 5 9 14 -2 11 5 18 19 20
15 2 26 14 34 37 6 19 20 38 32 42 23 8 37 35 26 51 -3 7 -1 8 5 4 7 -4 12 -2
12 3 0 6 3 10 8 9 4 -2 7 2 7 7 0 6 -6 9 -12 9 -9 -1 -10 3 -2 18 9 17 8 19
-10 13 -15 -5 -21 -2 -21 9 0 19 1 19 34 6 24 -9 27 -7 26 15 -1 10 26 32 47
39 12 4 27 14 34 22 11 13 9 14 -12 9 -30 -7 -61 18 -34 29 9 3 15 0 15 -9 0
-8 2 -15 5 -15 5 0 60 54 89 88 30 35 9 26 -31 -14 -25 -25 -38 -33 -46 -25
-8 8 -6 15 8 24 10 8 15 19 11 25 -5 8 0 12 13 12 29 0 36 18 15 41 -9 10 -13
19 -8 19 5 0 1 7 -9 14 -13 10 -15 16 -6 21 6 4 15 1 20 -6 6 -10 8 -7 6 9 -1
12 -6 21 -12 19 -42 -16 -52 -16 -52 -2 0 8 6 15 12 15 7 0 20 9 31 21 19 21
19 21 -13 16 -18 -3 -33 -1 -35 4 -2 5 -9 0 -15 -11 -11 -17 -10 -19 5 -14 12
4 10 0 -7 -15 -13 -12 -29 -21 -35 -21 -17 0 -77 -70 -70 -81 3 -5 -2 -9 -10
-9 -10 0 -13 -6 -10 -15 4 -11 -5 -20 -32 -31 -28 -12 -34 -18 -23 -25 8 -5
11 -9 7 -10 -5 -1 -11 -2 -15 -3 -18 -3 -33 -18 -28 -27 4 -5 0 -9 -7 -9 -7 0
-24 -17 -38 -37 -29 -44 -97 -113 -110 -113 -6 0 -10 -3 -10 -8 0 -4 -9 -13
-21 -20 -20 -12 -20 -11 -18 50 1 35 6 74 12 88 5 14 10 36 11 50 0 14 5 31 9
38 5 7 10 34 12 60 4 62 10 91 23 122 10 24 25 97 21 102 -1 2 4 14 11 28 8
14 13 29 12 33 -1 4 2 16 8 27 6 12 7 27 1 44 -7 16 -7 26 1 28 5 2 11 20 12
40 0 20 4 40 9 44 4 4 7 16 7 26 0 10 7 21 15 24 8 4 15 12 15 20 0 8 3 13 8
12 15 -3 92 23 92 33 0 5 17 7 42 3 32 -6 39 -4 33 6 -5 9 -4 11 4 6 6 -4 19
-2 28 6 12 9 17 10 20 1 3 -8 13 -9 36 -2 18 5 44 9 59 9 18 0 28 5 28 15 0 8
8 15 18 15 15 0 15 -2 2 -11 -11 -8 -7 -9 20 -5 18 4 37 10 40 15 3 5 19 12
35 16 24 5 27 4 13 -5 -10 -6 -18 -15 -18 -21 0 -10 35 7 58 29 7 6 31 12 53
12 24 0 38 4 34 10 -3 6 1 7 9 4 9 -3 13 -10 10 -15 -7 -13 10 -11 23 2 6 6
39 12 74 13 90 5 89 4 89 21 0 8 5 15 11 15 5 0 8 -4 5 -9 -3 -5 1 -12 10 -15
23 -9 28 -7 16 7 -5 7 -6 21 -1 32 7 18 8 18 8 2 1 -12 7 -17 19 -15 16 3 19
19 10 58 -2 8 -20 33 -41 55 -34 36 -43 40 -119 51 -80 11 -268 3 -308 -13
-16 -7 -14 -7 -115 -23 -116 -18 -158 -23 -195 -24 -29 -1 -34 2 -33 22 2 45
3 48 13 32 9 -13 10 -13 11 0 1 8 1 21 0 29 -2 7 2 10 8 7 13 -8 24 29 16 55
-5 14 -4 19 4 15 11 -7 35 38 45 86 3 15 13 33 21 42 8 8 12 22 9 30 -3 9 -1
16 5 16 6 0 11 6 11 14 0 7 7 19 14 26 10 8 14 26 12 58 -2 26 -4 55 -5 65 -2
28 -82 108 -129 128 -52 22 -47 22 -59 7z m99 -430 c-7 -7 -12 -8 -12 -2 0 14
12 26 19 19 2 -3 -1 -11 -7 -17z m128 -1041 c0 -6 -3 -7 -7 -4 -3 4 -12 2 -19
-4 -8 -7 -14 -7 -19 1 -3 5 1 10 10 10 9 0 13 4 10 10 -3 6 1 7 9 4 9 -3 16
-11 16 -17z m-50 -123 c0 -2 -9 0 -20 6 -11 6 -20 13 -20 16 0 2 9 0 20 -6 11
-6 20 -13 20 -16z m-105 -184 c-3 -5 -11 -10 -16 -10 -6 0 -7 5 -4 10 3 6 11
10 16 10 6 0 7 -4 4 -10z m-35 -35 c-7 -9 -15 -13 -19 -10 -3 3 1 10 9 15 21
14 24 12 10 -5z"/>
<path d="M3055 1493 c-4 -15 -11 -57 -15 -92 -8 -65 -27 -100 -38 -71 -6 16
-32 43 -101 102 l-44 38 -71 -16 c-39 -9 -89 -28 -111 -42 -73 -48 -206 -164
-217 -188 -6 -13 -14 -24 -18 -24 -8 0 -87 -98 -137 -169 -78 -111 -108 -160
-136 -219 -26 -57 -29 -71 -25 -136 3 -48 13 -91 30 -128 35 -76 121 -187 172
-221 22 -15 49 -34 58 -42 30 -25 90 -45 148 -52 47 -5 64 -1 105 20 42 21
125 102 125 121 0 4 14 20 30 38 17 17 30 39 30 48 0 9 10 28 23 42 43 50 82
104 101 141 10 21 21 35 25 32 3 -4 9 -91 13 -193 7 -205 22 -289 51 -284 9 2
17 -2 17 -8 0 -7 8 -22 18 -33 20 -26 88 -33 109 -11 22 22 31 102 27 249 -5
206 -5 325 1 370 2 22 7 64 10 93 3 30 7 58 11 63 8 14 34 265 34 339 0 53 -4
71 -22 95 -46 59 -114 121 -148 135 -19 8 -38 18 -41 23 -4 5 -10 -4 -14 -20z
m-77 -274 c2 -9 -8 -39 -22 -65 -55 -111 -87 -169 -100 -184 -7 -8 -16 -27
-20 -42 -3 -16 -11 -28 -16 -28 -6 0 -10 -6 -10 -13 0 -7 -9 -20 -20 -30 -11
-9 -20 -25 -20 -35 0 -9 -11 -29 -25 -42 -40 -39 -43 -43 -70 -76 -13 -17 -22
-34 -19 -37 23 -23 -76 -132 -159 -173 -38 -20 -58 -24 -88 -19 -36 6 -38 9
-44 48 -8 60 -2 98 29 164 15 32 39 82 52 111 14 30 31 51 37 49 12 -4 67 69
67 89 0 6 10 19 22 30 12 10 18 13 14 7 -11 -20 -1 -15 20 9 15 19 16 20 2 9
-11 -8 -18 -9 -18 -3 0 6 12 17 28 25 15 7 26 18 25 25 -3 13 84 92 102 92 6
0 25 13 42 30 38 37 130 81 163 78 14 -2 26 -10 28 -19z m16 -394 c-4 -8 -11
-15 -16 -15 -6 0 -5 6 2 15 7 8 14 15 16 15 2 0 1 -7 -2 -15z m6 -115 c0 -5
-7 -7 -15 -4 -8 4 -15 8 -15 10 0 2 7 4 15 4 8 0 15 -4 15 -10z m-59 -72 c-11
-11 -13 -10 -8 5 4 9 2 17 -3 17 -6 0 -10 5 -10 12 0 8 6 6 17 -5 14 -14 15
-19 4 -29z m-161 -228 c0 -5 -5 -10 -11 -10 -5 0 -7 5 -4 10 3 6 8 10 11 10 2
0 4 -4 4 -10z"/>
<path d="M2660 1055 c-8 -9 -8 -15 -2 -15 12 0 26 19 19 26 -2 2 -10 -2 -17
-11z"/>
</g>
</svg>
